<?xml version="1.0" encoding="UTF-8"?>
<svg version="1.1" xmlns="http://www.w3.org/2000/svg" width="667" height="100">
<path d="M0 0 C46.2 0 92.4 0 140 0 C140 7.26 140 14.52 140 22 C134 25 134 25 126 25 C126 41.83 126 58.66 126 76 C115.44 76 104.88 76 94 76 C94 59.17 94 42.34 94 25 C81.79 25 69.58 25 57 25 C57 25.66 57 26.32 57 27 C66.24 27 75.48 27 85 27 C85 43.17 85 59.34 85 76 C56.95 76 28.9 76 0 76 C0 61.48 0 46.96 0 32 C-2.64 31.67 -5.28 31.34 -8 31 C-8 37.27 -8 43.54 -8 50 C-13.21449179 50.02294886 -18.42880851 50.04286439 -23.64331055 50.05493164 C-25.41740513 50.059962 -27.19149556 50.06678699 -28.96557617 50.07543945 C-31.51482161 50.08756174 -34.06401226 50.09324126 -36.61328125 50.09765625 C-37.80405022 50.10539818 -37.80405022 50.10539818 -39.01887512 50.11329651 C-42.27656286 50.11362877 -44.88681521 50.03772826 -48 49 C-48 41.74 -48 34.48 -48 27 C-36.45 27 -24.9 27 -13 27 C-13 20.07 -13 13.14 -13 6 C-9.04 6 -5.08 6 -1 6 C-0.67 4.02 -0.34 2.04 0 0 Z M31 50 C31 51.65 31 53.3 31 55 C39.25 55 47.5 55 56 55 C56 53.35 56 51.7 56 50 C47.75 50 39.5 50 31 50 Z " fill="#090604" transform="translate(335,12)"/>
<path d="M0 0 C0.96042206 -0.00549866 1.92084412 -0.01099731 2.91036987 -0.0166626 C3.9418364 -0.00228149 4.97330292 0.01209961 6.036026 0.0269165 C7.13920166 0.0263324 8.24237732 0.02574829 9.37898254 0.02514648 C13.00986155 0.0279237 16.63991029 0.05900017 20.27064514 0.09039307 C22.79412386 0.0978567 25.31760838 0.10354906 27.84109497 0.10754395 C33.79441935 0.12123372 39.74747923 0.15272952 45.70066792 0.1929419 C54.33883426 0.25001645 62.97710222 0.27086813 71.61540985 0.2961731 C83.6999519 0.33491524 95.78372112 0.41157754 107.86830139 0.48101807 C107.86830139 25.56101807 107.86830139 50.64101807 107.86830139 76.48101807 C59.68830139 76.48101807 11.50830139 76.48101807 -38.13169861 76.48101807 C-38.13169861 67.57101807 -38.13169861 58.66101807 -38.13169861 49.48101807 C-35.07250473 48.46128677 -33.00751836 48.36568205 -29.80747986 48.38336182 C-28.4178302 48.38710815 -28.4178302 48.38710815 -27.00010681 48.39093018 C-25.8266571 48.40003418 -24.6532074 48.40913818 -23.44419861 48.41851807 C-17.84451111 48.44945557 -17.84451111 48.44945557 -12.13169861 48.48101807 C-12.13169861 33.96101807 -12.13169861 19.44101807 -12.13169861 4.48101807 C-4.25669861 -0.01898193 -4.25669861 -0.01898193 0 0 Z " fill="#070503" transform="translate(506.13169860839844,11.51898193359375)"/>
<path d="M0 0 C30 0 30 0 42 4 C42 6.97 42 9.94 42 13 C43.98 13 45.96 13 48 13 C48 8.71 48 4.42 48 0 C58.97892655 -0.0927379 69.9577597 -0.16378438 80.93699837 -0.20724869 C86.03528823 -0.22811092 91.13330983 -0.25640383 96.23144531 -0.30175781 C101.15274563 -0.34526396 106.07378815 -0.36914737 110.99526596 -0.37950897 C112.87154066 -0.38689176 114.74780146 -0.40130873 116.62396622 -0.42292023 C119.25499049 -0.45201777 121.88495363 -0.45595338 124.51611328 -0.45410156 C125.67597496 -0.47567322 125.67597496 -0.47567322 126.85926819 -0.49768066 C132.03967077 -0.45830653 135.04465747 0.66156868 139 4 C139.68115234 6.38183594 139.68115234 6.38183594 139.5859375 8.984375 C139.56345947 10.24846191 139.56345947 10.24846191 139.54052734 11.53808594 C139.48590332 12.59801758 139.4312793 13.65794922 139.375 14.75 C139.189375 19.82375 139.189375 19.82375 139 25 C130.42 25 121.84 25 113 25 C113 34.9 113 44.8 113 55 C121.58 55 130.16 55 139 55 C139 61.93 139 68.86 139 76 C108.97 76 78.94 76 48 76 C48 71.71 48 67.42 48 63 C45.525 63.495 45.525 63.495 43 64 C43 67.96 43 71.92 43 76 C28.81 76 14.62 76 0 76 C0 50.92 0 25.84 0 0 Z " fill="#050302" transform="translate(156,12)"/>
<path d="M0 0 C0.66 0 1.32 0 2 0 C2.60316894 7.5999287 1.13286374 11.68900537 -3 18 C-3.94045276 19.4564309 -4.87810553 20.91467492 -5.8125 22.375 C-6.23144531 23.00148438 -6.65039062 23.62796875 -7.08203125 24.2734375 C-8.23472366 26.11557617 -8.23472366 26.11557617 -8 29 C-7.38125 28.175 -6.7625 27.35 -6.125 26.5 C-5.42375 25.675 -4.7225 24.85 -4 24 C-3.34 24 -2.68 24 -2 24 C-2.33 26.31 -2.66 28.62 -3 31 C-2.154375 30.505 -1.30875 30.01 -0.4375 29.5 C3.33796832 27.85252292 5.92817548 27.75569053 10 28 C10 28.66 10 29.32 10 30 C9.030625 30.2475 8.06125 30.495 7.0625 30.75 C3.96045299 31.63030569 3.96045299 31.63030569 3.125 33.6875 C2.9568901 36.79753308 2.94012288 39.88638952 3 43 C3.33 41.35 3.66 39.7 4 38 C4.99 38.33 5.98 38.66 7 39 C7.07183959 43.09485638 7.02711601 46.81320079 6.4375 50.875 C5.71313368 53.89868793 5.71313368 53.89868793 7 56 C7.66 54.35 8.32 52.7 9 51 C9.66 51 10.32 51 11 51 C11.433125 52.0725 11.86625 53.145 12.3125 54.25 C13.55447295 57.17750767 15.04356954 59.48458941 17 62 C17 62.66 17 63.32 17 64 C17.66 64 18.32 64 19 64 C18.505 61.03 18.505 61.03 18 58 C17.01 58.33 16.02 58.66 15 59 C15.66 57.35 16.32 55.7 17 54 C15.35 54 13.7 54 12 54 C12 53.34 12 52.68 12 52 C13.98600337 50.6459068 15.98817543 49.31542376 18 48 C18.61875 47.29875 19.2375 46.5975 19.875 45.875 C23.04338462 43.07936651 25.84620932 42.72526504 30 42 C30.99 42.33 31.98 42.66 33 43 C33 43.66 33 44.32 33 45 C32.38125 45.2475 31.7625 45.495 31.125 45.75 C28.48060015 47.30552932 27.92330062 48.07621471 27 51 C26.57073876 56.14398245 26.57073876 56.14398245 28 61 C28.82022749 59.92250558 29.63086169 58.83770492 30.4375 57.75 C30.88996094 57.14671875 31.34242187 56.5434375 31.80859375 55.921875 C33.03900997 53.93707244 33.56112668 52.28012345 34 50 C35.32 51.65 36.64 53.3 38 55 C39.33421196 51.96609444 39.33421196 51.96609444 38 48.75 C36.92047964 44.70179866 37.1704691 42.06470141 38 38 C38.99 37.67 39.98 37.34 41 37 C41.495 39.97 41.495 39.97 42 43 C41.98674793 39.89901539 41.82346839 36.99866792 41 34 C38.07956297 31.52351923 38.07956297 31.52351923 35 30 C35 29.34 35 28.68 35 28 C39.24480464 27.66707415 41.35542625 27.56114128 44.9375 30 C45.618125 30.66 46.29875 31.32 47 32 C47 29.36 47 26.72 47 24 C50.73884332 26.65654657 52.64978174 28.58110387 54 33 C52.90102239 25.99401774 49.68572651 20.89996625 45.875 15.05078125 C42.63430758 9.77790462 41.75644596 6.21062798 42 0 C45.20962732 1.06987577 45.69905837 1.58389694 47.6875 4.125 C49.96385202 6.89399537 52.32743516 9.24543563 55.0625 11.5625 C59.2757134 15.15422407 63.20992852 18.62978556 65 24 C64.505 20.04 64.505 20.04 64 16 C63.01 16 62.02 16 61 16 C57.21744943 12.35514399 54.20907115 8.70243651 53.5625 3.4375 C53.706875 2.633125 53.85125 1.82875 54 1 C57.6110861 4.41047021 60.25445286 7.88167929 63 12 C64.2375 13.0828125 64.2375 13.0828125 65.5 14.1875 C69.85249079 19.08405214 71.64636548 25.12040466 72.4375 31.5625 C71.13424952 41.8023252 67.28632862 48.71367138 60 56 C62.76276177 55.47731534 65.3260876 54.89130413 68 54 C67.00738163 58.80636265 64.75861478 61.91279053 61 65 C57.70368789 66.85423293 54.26363063 68.40951573 50.83911133 70.00976562 C43.97193625 73.30383494 40.35314199 77.05204813 37 84 C36.34 84 35.68 84 35 84 C34.6309795 74.58997722 34.6309795 74.58997722 37 70 C36.01 70.66 35.02 71.32 34 72 C34.061875 73.03125 34.12375 74.0625 34.1875 75.125 C33.89643674 81.14030733 30.52528634 84.49288119 26.37109375 88.6171875 C22.55826271 92 22.55826271 92 19 92 C17.31201173 93.43750191 17.31201173 93.43750191 16 95 C15.67 94.34 15.34 93.68 15 93 C15.495 91.515 15.495 91.515 16 90 C16.53550042 84.01681258 16.49180719 79.11300338 13 74 C11.68 73.01 10.36 72.02 9 71 C9.495 77.435 9.495 77.435 10 84 C9.01 84 8.02 84 7 84 C6.505 82.80375 6.01 81.6075 5.5 80.375 C1.1453134 71.83080457 -7.45878532 68.63407815 -15.828125 64.90625 C-19.45717363 62.7252454 -20.99448597 60.69332286 -23 57 C-23 56.34 -23 55.68 -23 55 C-20.03 55.66 -17.06 56.32 -14 57 C-14.7425 56.278125 -15.485 55.55625 -16.25 54.8125 C-22.83185679 48.08105555 -27.15370387 41.68458546 -27.5 32.0625 C-27.24614589 24.96365125 -25.40636375 18.80742438 -20.75 13.375 C-19.88375 12.694375 -19.88375 12.694375 -19 12 C-19.33 15.3 -19.66 18.6 -20 22 C-19.2575 20.88625 -18.515 19.7725 -17.75 18.625 C-14.07172685 13.65579445 -9.4407611 10.07064424 -4.609375 6.296875 C-2.24240241 4.21337219 -1.0919217 2.90291378 0 0 Z M29 64 C30 66 30 66 30 66 Z M31 67 C32 69 32 69 32 69 Z M22 83 C23 86 23 86 23 86 Z M21 86 C20.67 87.32 20.34 88.64 20 90 C20.66 89.67 21.32 89.34 22 89 C21.67 88.01 21.34 87.02 21 86 Z " fill="#E90403" transform="translate(35,2)"/>
<path d="M0 0 C6.6 0 13.2 0 20 0 C20 4.62 20 9.24 20 14 C22.64 14 25.28 14 28 14 C28 18.29 28 22.58 28 27 C32.29 27 36.58 27 41 27 C41 22.71 41 18.42 41 14 C43.31 14 45.62 14 48 14 C48 9.38 48 4.76 48 0 C54.93 0 61.86 0 69 0 C69 22.44 69 44.88 69 68 C62.07 68 55.14 68 48 68 C48 59.09 48 50.18 48 41 C45.69 41 43.38 41 41 41 C41 45.62 41 50.24 41 55 C36.38 55 31.76 55 27 55 C27 50.38 27 45.76 27 41 C25.02 41 23.04 41 21 41 C21 50.24 21 59.48 21 69 C14.07 69 7.14 69 0 69 C0 46.23 0 23.46 0 0 Z " fill="#EB864C" transform="translate(161,16)"/>
<path d="M0 0 C16.17 0 32.34 0 49 0 C49 22.77 49 45.54 49 69 C32.83 69 16.66 69 0 69 C0 46.23 0 23.46 0 0 Z " fill="#E67D46" transform="translate(560,16)"/>
<path d="M0 0 C16.17 0 32.34 0 49 0 C49 9.24 49 18.48 49 28 C46.69 28 44.38 28 42 28 C42 29.98 42 31.96 42 34 C44.31 34 46.62 34 49 34 C49 45.22 49 56.44 49 68 C42.07 68 35.14 68 28 68 C28 59.09 28 50.18 28 41 C25.69 41 23.38 41 21 41 C21 49.91 21 58.82 21 68 C14.07 68 7.14 68 0 68 C0 45.56 0 23.12 0 0 Z " fill="#EB844B" transform="translate(505,16)"/>
<path d="M0 0 C16.17 0 32.34 0 49 0 C49 4.62 49 9.24 49 14 C39.76 14 30.52 14 21 14 C21 18.29 21 22.58 21 27 C30.24 27 39.48 27 49 27 C48.67 40.53 48.34 54.06 48 68 C32.49 68 16.98 68 1 68 C0.67 63.71 0.34 59.42 0 55 C9.24 55 18.48 55 28 55 C28 50.38 28 45.76 28 41 C18.76 41 9.52 41 0 41 C0 27.47 0 13.94 0 0 Z " fill="#EC8048" transform="translate(367,16)"/>
<path d="M0 0 C16.17 0 32.34 0 49 0 C49 4.62 49 9.24 49 14 C39.76 14 30.52 14 21 14 C21 27.53 21 41.06 21 55 C30.24 55 39.48 55 49 55 C49 59.29 49 63.58 49 68 C33.16 68 17.32 68 1 68 C0.34661184 58.85256574 -0.14017031 49.95465486 -0.09765625 40.8203125 C-0.0962413 39.64153534 -0.09482635 38.46275818 -0.09336853 37.2482605 C-0.08784032 33.54047945 -0.07530205 29.83276231 -0.0625 26.125 C-0.0574757 23.58724046 -0.05291443 21.04947997 -0.04882812 18.51171875 C-0.038752 12.34110234 -0.01916342 6.17062138 0 0 Z " fill="#ED854B" transform="translate(236,16)"/>
<path d="M0 0 C16.17 0 32.34 0 49 0 C49 4.62 49 9.24 49 14 C44.38 14 39.76 14 35 14 C35 31.82 35 49.64 35 68 C28.07 68 21.14 68 14 68 C14 50.18 14 32.36 14 14 C9.38 14 4.76 14 0 14 C0 9.38 0 4.76 0 0 Z " fill="#EF8E50" transform="translate(422,16)"/>
<path d="M0 0 C0.66 0 1.32 0 2 0 C2.60316894 7.5999287 1.13286374 11.68900537 -3 18 C-3.94045276 19.4564309 -4.87810553 20.91467492 -5.8125 22.375 C-6.23144531 23.00148438 -6.65039062 23.62796875 -7.08203125 24.2734375 C-8.23472366 26.11557617 -8.23472366 26.11557617 -8 29 C-7.38125 28.175 -6.7625 27.35 -6.125 26.5 C-5.42375 25.675 -4.7225 24.85 -4 24 C-3.34 24 -2.68 24 -2 24 C-2.33 26.31 -2.66 28.62 -3 31 C-2.154375 30.505 -1.30875 30.01 -0.4375 29.5 C3.33796832 27.85252292 5.92817548 27.75569053 10 28 C10 28.66 10 29.32 10 30 C9.030625 30.2475 8.06125 30.495 7.0625 30.75 C3.96045299 31.63030569 3.96045299 31.63030569 3.125 33.6875 C2.9568901 36.79753308 2.94012288 39.88638952 3 43 C3.33 41.35 3.66 39.7 4 38 C4.99 38.33 5.98 38.66 7 39 C7.07183959 43.09485638 7.02711601 46.81320079 6.4375 50.875 C5.71313368 53.89868793 5.71313368 53.89868793 7 56 C7.66 54.35 8.32 52.7 9 51 C9.66 51 10.32 51 11 51 C11.19335938 51.68707031 11.38671875 52.37414063 11.5859375 53.08203125 C11.97652344 54.43361328 11.97652344 54.43361328 12.375 55.8125 C12.75785156 57.15248047 12.75785156 57.15248047 13.1484375 58.51953125 C13.95266661 61.20467896 13.95266661 61.20467896 16 64 C15.7578125 66.48046875 15.7578125 66.48046875 15.125 69.1875 C14.92132813 70.08855469 14.71765625 70.98960938 14.5078125 71.91796875 C14.34023438 72.60503906 14.17265625 73.29210937 14 74 C12.35 73.01 10.7 72.02 9 71 C9.495 77.435 9.495 77.435 10 84 C9.01 84 8.02 84 7 84 C6.505 82.80375 6.01 81.6075 5.5 80.375 C1.1453134 71.83080457 -7.45878532 68.63407815 -15.828125 64.90625 C-19.45717363 62.7252454 -20.99448597 60.69332286 -23 57 C-23 56.34 -23 55.68 -23 55 C-20.03 55.66 -17.06 56.32 -14 57 C-14.7425 56.278125 -15.485 55.55625 -16.25 54.8125 C-22.83185679 48.08105555 -27.15370387 41.68458546 -27.5 32.0625 C-27.24614589 24.96365125 -25.40636375 18.80742438 -20.75 13.375 C-19.88375 12.694375 -19.88375 12.694375 -19 12 C-19.33 15.3 -19.66 18.6 -20 22 C-19.2575 20.88625 -18.515 19.7725 -17.75 18.625 C-14.07172685 13.65579445 -9.4407611 10.07064424 -4.609375 6.296875 C-2.24240241 4.21337219 -1.0919217 2.90291378 0 0 Z " fill="#CA0103" transform="translate(35,2)"/>
<path d="M0 0 C6.6 0 13.2 0 20 0 C20 22.44 20 44.88 20 68 C13.4 68 6.8 68 0 68 C0 52.49 0 36.98 0 21 C-4.62 21 -9.24 21 -14 21 C-14 16.38 -14 11.76 -14 7 C-9.38 7 -4.76 7 0 7 C0 4.69 0 2.38 0 0 Z " fill="#EF8B4F" transform="translate(340,16)"/>
<path d="M0 0 C0 0.66 0 1.32 0 2 C-0.61875 2.2475 -1.2375 2.495 -1.875 2.75 C-4.51939985 4.30552932 -5.07669938 5.07621471 -6 8 C-6.42926124 13.14398245 -6.42926124 13.14398245 -5 18 C-4.17977251 16.92250558 -3.36913831 15.83770492 -2.5625 14.75 C-2.11003906 14.14671875 -1.65757813 13.5434375 -1.19140625 12.921875 C0.03900997 10.93707244 0.56112668 9.28012345 1 7 C2.32 8.65 3.64 10.3 5 12 C5.474375 11.175 5.94875 10.35 6.4375 9.5 C6.953125 8.675 7.46875 7.85 8 7 C8.33 7 8.66 7 9 7 C9.28459514 11.06085053 9.52158928 15.12313276 9.75 19.1875 C9.83121094 20.33798828 9.91242188 21.48847656 9.99609375 22.67382812 C10.05410156 23.78564453 10.11210938 24.89746094 10.171875 26.04296875 C10.2347168 27.06414795 10.29755859 28.08532715 10.36230469 29.13745117 C9.90048202 32.78628591 8.44061955 34.31756658 6 37 C5.29114106 38.31138904 4.60543548 39.63777017 4 41 C3.34 41 2.68 41 2 41 C1.6309795 31.58997722 1.6309795 31.58997722 4 27 C3.01 27.66 2.02 28.32 1 29 C1.061875 30.03125 1.12375 31.0625 1.1875 32.125 C0.89643674 38.14030733 -2.47471366 41.49288119 -6.62890625 45.6171875 C-10.44173729 49 -10.44173729 49 -14 49 C-15.68798827 50.43750191 -15.68798827 50.43750191 -17 52 C-17.33 51.34 -17.66 50.68 -18 50 C-17.67 49.01 -17.34 48.02 -17 47 C-16.88179375 45.37810033 -16.8248568 43.75115453 -16.8125 42.125 C-16.79123047 40.86042969 -16.79123047 40.86042969 -16.76953125 39.5703125 C-16.86998313 36.95581279 -16.86998313 36.95581279 -18.04296875 34.56640625 C-19.23692354 31.3646581 -18.93528183 29.18174878 -18.5 25.8125 C-18.05651197 22.73906562 -18.05651197 22.73906562 -18 20 C-18.66 19.34 -19.32 18.68 -20 18 C-19.67 17.01 -19.34 16.02 -19 15 C-16 18.75 -16 18.75 -16 21 C-15.34 21 -14.68 21 -14 21 C-14.33 19.02 -14.66 17.04 -15 15 C-15.99 15.33 -16.98 15.66 -18 16 C-17.34 14.35 -16.68 12.7 -16 11 C-17.65 11 -19.3 11 -21 11 C-21 10.34 -21 9.68 -21 9 C-19.01399663 7.6459068 -17.01182457 6.31542376 -15 5 C-14.34 4.29875 -13.68 3.5975 -13 2.875 C-9.05747507 -0.82111712 -5.10175288 -1.50051555 0 0 Z M-4 21 C-3 23 -3 23 -3 23 Z M-2 24 C-1 26 -1 26 -1 26 Z M-11 40 C-10 43 -10 43 -10 43 Z M-12 43 C-12.33 44.32 -12.66 45.64 -13 47 C-12.34 46.67 -11.68 46.34 -11 46 C-11.33 45.01 -11.66 44.02 -12 43 Z " fill="#FCCF02" transform="translate(68,45)"/>
<path d="M0 0 C0 0.66 0 1.32 0 2 C-0.969375 2.2475 -1.93875 2.495 -2.9375 2.75 C-6.03954701 3.63030569 -6.03954701 3.63030569 -6.875 5.6875 C-7.0431099 8.79753308 -7.05987712 11.88638952 -7 15 C-6.67 13.35 -6.34 11.7 -6 10 C-5.01 10.33 -4.02 10.66 -3 11 C-2.92816041 15.09485638 -2.97288399 18.81320079 -3.5625 22.875 C-4.28686632 25.89868793 -4.28686632 25.89868793 -3 28 C-2.34 26.35 -1.68 24.7 -1 23 C-0.34 23 0.32 23 1 23 C1.19335938 23.68707031 1.38671875 24.37414062 1.5859375 25.08203125 C1.97652344 26.43361328 1.97652344 26.43361328 2.375 27.8125 C2.63023438 28.70582031 2.88546875 29.59914063 3.1484375 30.51953125 C3.95266661 33.20467896 3.95266661 33.20467896 6 36 C5.7578125 38.48046875 5.7578125 38.48046875 5.125 41.1875 C4.92132813 42.08855469 4.71765625 42.98960938 4.5078125 43.91796875 C4.34023438 44.60503906 4.17265625 45.29210937 4 46 C2.35 45.01 0.7 44.02 -1 43 C-0.67 47.29 -0.34 51.58 0 56 C-0.99 56 -1.98 56 -3 56 C-3.495 54.80375 -3.99 53.6075 -4.5 52.375 C-8.29540203 44.81092412 -15.60647626 41.43270745 -23 38 C-21.515 37.505 -21.515 37.505 -20 37 C-20 36.34 -20 35.68 -20 35 C-18.02 35 -16.04 35 -14 35 C-14.74020386 34.38838013 -14.74020386 34.38838013 -15.49536133 33.7644043 C-17.38822116 31.5447551 -17.29751891 30.63183326 -17.07421875 27.76953125 C-17.01943359 26.96708984 -16.96464844 26.16464844 -16.90820312 25.33789062 C-16.83537109 24.50451172 -16.76253906 23.67113281 -16.6875 22.8125 C-16.62626953 21.96751953 -16.56503906 21.12253906 -16.50195312 20.25195312 C-16.34881209 18.16687905 -16.17625843 16.08324724 -16 14 C-15.34 14 -14.68 14 -14 14 C-13.97421875 13.39671875 -13.9484375 12.7934375 -13.921875 12.171875 C-13.45452463 5.58648339 -13.45452463 5.58648339 -11.0625 2.5 C-7.26961377 -0.25846272 -4.65972569 -0.08629122 0 0 Z " fill="#FC0D01" transform="translate(45,30)"/>
<path d="M0 0 C3.99670192 -0.31346682 6.32674901 -0.40395059 9.8125 1.6875 C13.30900073 5.38380077 14 7.9385251 14 13 C14.66 13 15.32 13 16 13 C16.33 12.01 16.66 11.02 17 10 C17.99 10.66 18.98 11.32 20 12 C20.26464844 13.83178711 20.26464844 13.83178711 20.109375 16.02734375 C20.05910156 16.81947266 20.00882813 17.61160156 19.95703125 18.42773438 C19.88871094 19.25595703 19.82039063 20.08417969 19.75 20.9375 C19.69714844 21.76185547 19.64429687 22.58621094 19.58984375 23.43554688 C19.35070661 26.85854478 19.0915393 29.72538211 18 33 C17.01 33.495 17.01 33.495 16 34 C17.65 34.33 19.3 34.66 21 35 C21.33 36.32 21.66 37.64 22 39 C20.06629769 40.00732399 18.12789694 41.00563288 16.1875 42 C15.10855469 42.556875 14.02960938 43.11375 12.91796875 43.6875 C10 45 10 45 7 45 C6.67 37.74 6.34 30.48 6 23 C5.34 23.33 4.68 23.66 4 24 C2.20782031 18.83430559 1.87970186 15.48946087 3 10 C3.99 9.67 4.98 9.34 6 9 C6.33 10.98 6.66 12.96 7 15 C6.98674793 11.89901539 6.82346839 8.99866792 6 6 C3.07956297 3.52351923 3.07956297 3.52351923 0 2 C0 1.34 0 0.68 0 0 Z " fill="#F60301" transform="translate(70,30)"/>
<path d="M0 0 C16.17 0 32.34 0 49 0 C49 4.62 49 9.24 49 14 C39.76 14 30.52 14 21 14 C21 18.29 21 22.58 21 27 C30.24 27 39.48 27 49 27 C48.67 32.61 48.34 38.22 48 44 C47.67 44 47.34 44 47 44 C47 39.05 47 34.1 47 29 C37.76 29 28.52 29 19 29 C19 23.39 19 17.78 19 12 C28.24 12 37.48 12 47 12 C47 8.7 47 5.4 47 2 C32.15 2 17.3 2 2 2 C2 14.21 2 26.42 2 39 C11.24 39 20.48 39 30 39 C30 52 30 52 28 57 C18.76 57 9.52 57 0 57 C0 56.34 0 55.68 0 55 C9.24 55 18.48 55 28 55 C28 50.38 28 45.76 28 41 C18.76 41 9.52 41 0 41 C0 27.47 0 13.94 0 0 Z " fill="#EAEBDC" transform="translate(367,16)"/>
<path d="M0 0 C15.84 0 31.68 0 48 0 C48 9.24 48 18.48 48 28 C45.69 28 43.38 28 41 28 C41 29.98 41 31.96 41 34 C43.31 34 45.62 34 48 34 C48 45.22 48 56.44 48 68 C41.07 68 34.14 68 27 68 C27 59.09 27 50.18 27 41 C24.69 41 22.38 41 20 41 C20 44.96 20 48.92 20 53 C19.34 53 18.68 53 18 53 C18 48.38 18 43.76 18 39 C21.63 39 25.26 39 29 39 C29 48.24 29 57.48 29 67 C34.61 67 40.22 67 46 67 C46 56.77 46 46.54 46 36 C43.69 36 41.38 36 39 36 C39 32.37 39 28.74 39 25 C41.31 25 43.62 25 46 25 C46 17.41 46 9.82 46 2 C31.15 2 16.3 2 1 2 C1 17.18 1 32.36 1 48 C0.67 48 0.34 48 0 48 C0 32.16 0 16.32 0 0 Z " fill="#DD854B" transform="translate(506,16)"/>
<path d="M0 0 C1.231394 3.69418201 0.64432764 6.2056261 0 10 C1.65 7.69 3.3 5.38 5 3 C7.21954205 9.65862615 7.25517971 15.98448751 7.29516602 22.9543457 C7.30673756 24.36167412 7.32727056 25.76895691 7.35668945 27.17602539 C7.39924409 29.21270455 7.41551043 31.24808857 7.42578125 33.28515625 C7.44036377 34.50082275 7.45494629 35.71648926 7.4699707 36.96899414 C7 40 7 40 4.97338867 41.91967773 C4.32217041 42.27618408 3.67095215 42.63269043 3 43 C-3.68512011 34.82186973 -7.76749907 27.81997289 -7.39453125 17.00390625 C-6.54141757 10.50841697 -4.0483661 5.10395726 0 0 Z " fill="#960102" transform="translate(15,14)"/>
<path d="M0 0 C6.6 0 13.2 0 20 0 C20 6.6 20 13.2 20 20 C13.4 20 6.8 20 0 20 C0 13.4 0 6.8 0 0 Z " fill="#E6623E" transform="translate(478,64)"/>
<path d="M0 0 C9.24 0 18.48 0 28 0 C28 4.62 28 9.24 28 14 C18.76 14 9.52 14 0 14 C0 9.38 0 4.76 0 0 Z " fill="#EE8B4F" transform="translate(291,43)"/>
<path d="M0 0 C3.6110861 3.41047021 6.25445286 6.88167929 9 11 C9.825 11.721875 10.65 12.44375 11.5 13.1875 C15.85249079 18.08405214 17.64636548 24.12040466 18.4375 30.5625 C17.33918101 39.19214923 14.69182432 45.40558865 9 52 C8.34 51.67 7.68 51.34 7 51 C5.67204552 44.05120675 5.88500507 37.05047231 5.9375 30 C5.94201172 28.84371094 5.94652344 27.68742187 5.95117188 26.49609375 C5.96287471 23.66400775 5.97927004 20.83203189 6 18 C6.99 18 7.98 18 9 18 C9.66 19.65 10.32 21.3 11 23 C10.67 20.36 10.34 17.72 10 15 C9.01 15 8.02 15 7 15 C3.21744943 11.35514399 0.20907115 7.70243651 -0.4375 2.4375 C-0.293125 1.633125 -0.14875 0.82875 0 0 Z " fill="#8E0A09" transform="translate(89,3)"/>
<path d="M0 0 C2.89207813 8.6762344 1.8764639 23.37060829 -1 32 C-0.67 32.969375 -0.34 33.93875 0 34.9375 C1.39506173 39.20987654 1.39506173 39.20987654 0 42 C-1.75 43.0625 -1.75 43.0625 -4 44 C-5.67334039 44.98879205 -7.34151823 45.98648336 -9 47 C-8.7525 46.071875 -8.7525 46.071875 -8.5 45.125 C-7.68423778 40.0264861 -6.96689452 34.40284084 -9.04296875 29.57421875 C-10.2348572 26.36828205 -9.9357048 24.1850227 -9.5 20.8125 C-9.05651197 17.73906562 -9.05651197 17.73906562 -9 15 C-9.66 14.34 -10.32 13.68 -11 13 C-10.67 12.01 -10.34 11.02 -10 10 C-7 13.75 -7 13.75 -7 16 C-6.34 16 -5.68 16 -5 16 C-5.33 14.02 -5.66 12.04 -6 10 C-6.99 10.33 -7.98 10.66 -9 11 C-8.34 9.35 -7.68 7.7 -7 6 C-8.65 6 -10.3 6 -12 6 C-12 5.34 -12 4.68 -12 4 C-4 0 -4 0 0 0 Z M-2 35 C-1 38 -1 38 -1 38 Z M-3 38 C-3.33 39.32 -3.66 40.64 -4 42 C-3.34 41.67 -2.68 41.34 -2 41 C-2.33 40.01 -2.66 39.02 -3 38 Z " fill="#FCB301" transform="translate(59,50)"/>
<path d="M0 0 C15.84 0 31.68 0 48 0 C48 4.62 48 9.24 48 14 C38.76 14 29.52 14 20 14 C20 27.53 20 41.06 20 55 C29.24 55 38.48 55 48 55 C48 55.66 48 56.32 48 57 C44.03069011 57.02465881 40.06140966 57.04284023 36.09204102 57.05493164 C34.74079614 57.05997057 33.38955674 57.06680177 32.03833008 57.07543945 C30.09979566 57.08752419 28.161222 57.09269828 26.22265625 57.09765625 C24.47094116 57.10551147 24.47094116 57.10551147 22.68383789 57.11352539 C20 57 20 57 19 56 C17.46667219 46.7297407 17.88384381 37.17803588 17.9375 27.8125 C17.94252803 26.27278792 17.94708862 24.73307425 17.95117188 23.19335938 C17.96120736 19.46216655 17.98079999 15.73120127 18 12 C27.24 12 36.48 12 46 12 C46 8.7 46 5.4 46 2 C31.15 2 16.3 2 1 2 C1 11.57 1 21.14 1 31 C0.67 31 0.34 31 0 31 C0 20.77 0 10.54 0 0 Z " fill="#F1E6C8" transform="translate(237,16)"/>
<path d="M0 0 C16.17 0 32.34 0 49 0 C49 4.62 49 9.24 49 14 C44.38 14 39.76 14 35 14 C35.02320313 16.11921875 35.04640625 18.2384375 35.0703125 20.421875 C35.08592198 22.48046266 35.09805931 24.53904366 35.10986328 26.59765625 C35.11990427 28.02542078 35.13353981 29.45316483 35.15087891 30.88085938 C35.17521152 32.93624941 35.18650202 34.99136692 35.1953125 37.046875 C35.21102295 38.90070801 35.21102295 38.90070801 35.22705078 40.79199219 C35 44 35 44 33 48 C33 36.12 33 24.24 33 12 C37.62 12 42.24 12 47 12 C47 8.7 47 5.4 47 2 C32.15 2 17.3 2 2 2 C2 5.3 2 8.6 2 12 C6.62 12 11.24 12 16 12 C16 23.88 16 35.76 16 48 C13.85917754 43.71835508 13.7648969 41.74216604 13.8046875 37.046875 C13.8075174 36.38665344 13.81034729 35.72643188 13.81326294 35.04620361 C13.82441585 32.94728103 13.84951054 30.84879258 13.875 28.75 C13.88503616 27.32292285 13.8941609 25.89583898 13.90234375 24.46875 C13.92263377 20.97886677 13.96178923 17.48991662 14 14 C9.38 14 4.76 14 0 14 C0 9.38 0 4.76 0 0 Z " fill="#E6E4BC" transform="translate(422,16)"/>
<path d="M0 0 C2.31 0 4.62 0 7 0 C7 13.86 7 27.72 7 42 C4.69 42 2.38 42 0 42 C0 28.14 0 14.28 0 0 Z " fill="#100F0A" transform="translate(581,29)"/>
<path d="M0 0 C3 1 3 1 4.1875 3.0625 C4.455625 3.701875 4.72375 4.34125 5 5 C5.66 3.35 6.32 1.7 7 0 C7.66 0 8.32 0 9 0 C9.19335938 0.68707031 9.38671875 1.37414063 9.5859375 2.08203125 C9.84632812 2.98308594 10.10671875 3.88414063 10.375 4.8125 C10.63023438 5.70582031 10.88546875 6.59914063 11.1484375 7.51953125 C11.95266661 10.20467896 11.95266661 10.20467896 14 13 C13.7578125 15.48046875 13.7578125 15.48046875 13.125 18.1875 C12.92132813 19.08855469 12.71765625 19.98960938 12.5078125 20.91796875 C12.34023438 21.60503906 12.17265625 22.29210937 12 23 C10.35 22.01 8.7 21.02 7 20 C7.33 24.29 7.66 28.58 8 33 C7.01 33 6.02 33 5 33 C4.35165346 31.730447 3.70642185 30.45930294 3.0625 29.1875 C2.70285156 28.47980469 2.34320313 27.77210937 1.97265625 27.04296875 C0.28627719 23.50089546 -0.1200551 20.76953217 -0.09765625 16.89453125 C-0.09443359 15.91162109 -0.09121094 14.92871094 -0.08789062 13.91601562 C-0.07951172 12.89185547 -0.07113281 11.86769531 -0.0625 10.8125 C-0.05798828 9.77673828 -0.05347656 8.74097656 -0.04882812 7.67382812 C-0.0370401 5.11582734 -0.02058515 2.55794267 0 0 Z " fill="#FB3B02" transform="translate(37,53)"/>
<path d="M0 0 C0.66 0 1.32 0 2 0 C2.679685 8.56403102 0.28984706 13.06522941 -4.375 20.0625 C-7.40776488 24.68385601 -8.93080832 28.55684235 -10 34 C-10.33 34 -10.66 34 -11 34 C-11.33 41.59 -11.66 49.18 -12 57 C-13.32 56.34 -14.64 55.68 -16 55 C-15.34 54.01 -14.68 53.02 -14 52 C-13.70631731 48.86376461 -13.70631731 48.86376461 -13.76953125 45.28515625 C-13.76998947 44.63300644 -13.77044769 43.98085663 -13.7709198 43.3089447 C-13.77393703 41.9312864 -13.78180756 40.55363135 -13.79418945 39.17602539 C-13.81240378 37.07360664 -13.81469929 34.97162994 -13.81445312 32.86914062 C-13.76890405 25.36471178 -13.76890405 25.36471178 -15 18 C-13.85940593 13.26503384 -11.29797981 11.31097157 -7.5 8.4375 C-2.82544886 4.95145269 -2.82544886 4.95145269 0 0 Z " fill="#BC0102" transform="translate(35,2)"/>
<path d="M0 0 C2.475 0.99 2.475 0.99 5 2 C4.83773926 2.71172363 4.67547852 3.42344727 4.50830078 4.15673828 C3.99959702 7.00225412 3.8706721 9.60445064 3.8671875 12.4921875 C3.86589844 13.52730469 3.86460938 14.56242187 3.86328125 15.62890625 C3.86714844 16.70011719 3.87101562 17.77132812 3.875 18.875 C3.87113281 19.93847656 3.86726563 21.00195312 3.86328125 22.09765625 C3.86879794 28.6445452 3.86879794 28.6445452 4.6328125 35.1328125 C4.75398438 36.07898437 4.87515625 37.02515625 5 38 C4.34 38.66 3.68 39.32 3 40 C5.76276177 39.47731534 8.3260876 38.89130413 11 38 C10.41677263 41.93678473 8.99413906 44.38012832 6 47 C2.90030925 47.12826307 0.02422802 46.65266459 -3 46 C-2.67 45.34 -2.34 44.68 -2 44 C-1.85515137 41.39683111 -1.76577917 38.81620689 -1.71875 36.2109375 C-1.70034058 35.43368317 -1.68193115 34.65642883 -1.66296387 33.85562134 C-1.6041524 31.3621588 -1.55143973 28.86862482 -1.5 26.375 C-1.44834512 23.9028072 -1.39519835 21.43069744 -1.33703613 18.95864868 C-1.30087105 17.42046549 -1.26833775 15.88219092 -1.2401123 14.34384155 C-1.1266441 9.49977455 -0.66858838 4.79989614 0 0 Z " fill="#C80404" transform="translate(92,18)"/>
<path d="M0 0 C15.84 0 31.68 0 48 0 C48.020625 6.331875 48.04125 12.66375 48.0625 19.1875 C48.071604 21.1780542 48.08070801 23.1686084 48.09008789 25.21948242 C48.09300995 26.80647718 48.09555783 28.39347269 48.09765625 29.98046875 C48.10277222 30.79696899 48.10788818 31.61346924 48.11315918 32.45471191 C48.11376806 36.44104249 47.99264343 40.10842558 47 44 C46.67 44 46.34 44 46 44 C46 30.14 46 16.28 46 2 C31.15 2 16.3 2 1 2 C1 16.19 1 30.38 1 45 C0.67 45 0.34 45 0 45 C0 30.15 0 15.3 0 0 Z " fill="#FEF7CD" transform="translate(561,16)"/>
<path d="M0 0 C0.66 0.66 1.32 1.32 2 2 C2.99 2.33 3.98 2.66 5 3 C4.94465088 3.9794458 4.88930176 4.9588916 4.83227539 5.96801758 C3.68725293 26.30894953 2.68254241 46.63748463 2 67 C16.85 67 31.7 67 47 67 C47 63.7 47 60.4 47 57 C47.66 57 48.32 57 49 57 C49 60.63 49 64.26 49 68 C33.16 68 17.32 68 1 68 C0.34661184 58.85256574 -0.14017031 49.95465486 -0.09765625 40.8203125 C-0.0962413 39.64153534 -0.09482635 38.46275818 -0.09336853 37.2482605 C-0.08784032 33.54047945 -0.07530205 29.83276231 -0.0625 26.125 C-0.0574757 23.58724046 -0.05291443 21.04947997 -0.04882812 18.51171875 C-0.03789456 12.3411246 -0.02123001 6.17056687 0 0 Z " fill="#DA9A5D" transform="translate(236,16)"/>
<path d="M0 0 C3.3 0 6.6 0 10 0 C10 4.62 10 9.24 10 14 C13.3 14 16.6 14 20 14 C20 9.38 20 4.76 20 0 C20.33 0 20.66 0 21 0 C21.495 7.92 21.495 7.92 22 16 C17.38 16 12.76 16 8 16 C8 11.38 8 6.76 8 2 C6.02 2 4.04 2 2 2 C2 11.24 2 20.48 2 30 C-4.93 30 -11.86 30 -19 30 C-19 24.06 -19 18.12 -19 12 C-15.7169902 16.9245147 -16.88469195 22.17694327 -17 28 C-11.39 28 -5.78 28 0 28 C0 18.76 0 9.52 0 0 Z " fill="#D88E4F" transform="translate(180,55)"/>
<path d="M0 0 C0.9075 0.00257812 1.815 0.00515625 2.75 0.0078125 C4.11125 0.00394531 4.11125 0.00394531 5.5 0 C7.75 0.1328125 7.75 0.1328125 8.75 1.1328125 C9.17023608 11.01483974 8.6678913 21.00261248 8.375 30.8828125 C8.35953125 31.55957031 8.3440625 32.23632812 8.328125 32.93359375 C8.28273839 34.91169362 8.22363249 36.88946395 8.1640625 38.8671875 C8.1326416 40.02444336 8.1012207 41.18169922 8.06884766 42.37402344 C7.75 45.1328125 7.75 45.1328125 5.75 47.1328125 C2.125 47.2578125 2.125 47.2578125 -1.25 47.1328125 C-1.25 46.4728125 -1.25 45.8128125 -1.25 45.1328125 C1.06 45.1328125 3.37 45.1328125 5.75 45.1328125 C5.75 31.2728125 5.75 17.4128125 5.75 3.1328125 C3.44 3.1328125 1.13 3.1328125 -1.25 3.1328125 C-1.25 14.6828125 -1.25 26.2328125 -1.25 38.1328125 C-1.58 38.1328125 -1.91 38.1328125 -2.25 38.1328125 C-3.47569331 30.49654865 -3.3977613 22.91518559 -3.375 15.1953125 C-3.37856656 13.84309802 -3.38247011 12.49088438 -3.38671875 11.13867188 C-3.38478516 9.23504883 -3.38478516 9.23504883 -3.3828125 7.29296875 C-3.38168457 6.13418213 -3.38055664 4.97539551 -3.37939453 3.78149414 C-3.20389828 0.189119 -3.20389828 0.189119 0 0 Z " fill="#F0D494" transform="translate(582.25,25.8671875)"/>
<path d="M0 0 C6.6 0 13.2 0 20 0 C20 4.62 20 9.24 20 14 C22.31 14 24.62 14 27 14 C27 18.62 27 23.24 27 28 C31.62 28 36.24 28 41 28 C41 28.33 41 28.66 41 29 C35.72 29 30.44 29 25 29 C25 24.71 25 20.42 25 16 C22.69 16 20.38 16 18 16 C18 11.38 18 6.76 18 2 C12.72 2 7.44 2 2 2 C2 16.19 2 30.38 2 45 C1.67 45 1.34 45 1 45 C-0.03485633 39.90807713 -0.13009967 35.05052659 -0.09765625 29.8828125 C-0.0962413 29.02565643 -0.09482635 28.16850037 -0.09336853 27.28536987 C-0.08780022 24.5652101 -0.07525364 21.84513462 -0.0625 19.125 C-0.0574809 17.27343869 -0.05291871 15.42187609 -0.04882812 13.5703125 C-0.03869485 9.04681691 -0.01911339 4.52350209 0 0 Z " fill="#FCF1C8" transform="translate(161,16)"/>
<path d="M0 0 C0.33 0 0.66 0 1 0 C1.76856897 13.02449909 2.09885137 25.95161896 2 39 C11.24 39 20.48 39 30 39 C30 52 30 52 28 57 C18.76 57 9.52 57 0 57 C0 56.34 0 55.68 0 55 C9.24 55 18.48 55 28 55 C28 50.38 28 45.76 28 41 C18.76 41 9.52 41 0 41 C0 27.47 0 13.94 0 0 Z " fill="#EBCF92" transform="translate(367,16)"/>
<path d="M0 0 C6.625 -0.25 6.625 -0.25 10 2 C10.41891479 3.8215332 10.41891479 3.8215332 10.47998047 6.05078125 C10.5094577 6.88504639 10.53893494 7.71931152 10.56930542 8.57885742 C10.58510651 9.48095947 10.60090759 10.38306152 10.6171875 11.3125 C10.64225372 12.23716064 10.66731995 13.16182129 10.69314575 14.11450195 C10.74216435 16.07128299 10.78369793 18.02826357 10.81835938 19.98535156 C10.87478638 22.98863002 10.96310923 25.98979885 11.0546875 28.9921875 C11.0982788 30.89058178 11.14000832 32.78901992 11.1796875 34.6875 C11.20763397 35.58960205 11.23558044 36.4917041 11.26437378 37.42114258 C11.27493805 38.25540771 11.28550232 39.08967285 11.29638672 39.94921875 C11.31176483 40.68487061 11.32714294 41.42052246 11.34298706 42.1784668 C11.22980133 42.77957275 11.1166156 43.38067871 11 44 C10.01 44.66 9.02 45.32 8 46 C6.34920558 44.34920558 6.77450553 42.36263821 6.68359375 40.08984375 C6.62075195 38.60581055 6.62075195 38.60581055 6.55664062 37.09179688 C6.51732422 36.05087891 6.47800781 35.00996094 6.4375 33.9375 C6.39431641 32.89271484 6.35113281 31.84792969 6.30664062 30.77148438 C6.20018775 28.18113116 6.0981724 25.59067814 6 23 C5.34 23.33 4.68 23.66 4 24 C2.20782031 18.83430559 1.87970186 15.48946087 3 10 C3.99 9.67 4.98 9.34 6 9 C6.33 10.98 6.66 12.96 7 15 C6.98674793 11.89901539 6.82346839 8.99866792 6 6 C3.07956297 3.52351923 3.07956297 3.52351923 0 2 C0 1.34 0 0.68 0 0 Z " fill="#F97003" transform="translate(70,30)"/>
<path d="M0 0 C1.25109593 4.12182767 0.98814266 7.98101718 0.83984375 12.24609375 C1.01244357 15.21396877 1.75832058 17.31699859 3 20 C3.99 19.67 4.98 19.34 6 19 C6.33 20.65 6.66 22.3 7 24 C9.29575603 21.70424397 9.32339599 20.99157475 9.625 17.875 C9.74875 16.59625 9.8725 15.3175 10 14 C10.33 14 10.66 14 11 14 C11.11608726 17.27053517 11.18720711 20.5405418 11.25 23.8125 C11.28351562 24.74126953 11.31703125 25.67003906 11.3515625 26.62695312 C11.36445313 27.51962891 11.37734375 28.41230469 11.390625 29.33203125 C11.41157227 30.15421143 11.43251953 30.9763916 11.45410156 31.82348633 C11 34 11 34 8.97558594 35.79174805 C8.32364258 36.19047119 7.67169922 36.58919434 7 37 C0.23166535 28.72007062 -3.68957048 21.81218181 -3.33984375 10.88671875 C-2.86446979 6.84877212 -1.69983104 3.68296726 0 0 Z " fill="#A40102" transform="translate(11,20)"/>
<path d="M0 0 C6.6 0 13.2 0 20 0 C20 14.52 20 29.04 20 44 C19.67 44 19.34 44 19 44 C19 30.14 19 16.28 19 2 C13.39 2 7.78 2 2 2 C2 4.31 2 6.62 2 9 C-2.62 9 -7.24 9 -12 9 C-12 12.3 -12 15.6 -12 19 C-7.71 19 -3.42 19 1 19 C1 27.25 1 35.5 1 44 C0.67 44 0.34 44 0 44 C0 36.41 0 28.82 0 21 C-4.62 21 -9.24 21 -14 21 C-14 16.38 -14 11.76 -14 7 C-9.38 7 -4.76 7 0 7 C0 4.69 0 2.38 0 0 Z " fill="#FBF9E3" transform="translate(340,16)"/>
<path d="M0 0 C3.63 0 7.26 0 11 0 C11 5.61 11 11.22 11 17 C7.37 17 3.74 17 0 17 C0 11.39 0 5.78 0 0 Z " fill="#ECE8B9" transform="translate(524,28)"/>
<path d="M0 0 C15.84 0 31.68 0 48 0 C48 18.57142857 48 18.57142857 47 27 C44.69 27 42.38 27 40 27 C40 26.67 40 26.34 40 26 C41.98 26 43.96 26 46 26 C46 18.08 46 10.16 46 2 C31.15 2 16.3 2 1 2 C1 17.18 1 32.36 1 48 C0.67 48 0.34 48 0 48 C0 32.16 0 16.32 0 0 Z " fill="#FAF6D7" transform="translate(506,16)"/>
<path d="M0 0 C0.33 0 0.66 0 1 0 C1 7.92 1 15.84 1 24 C14.53 23.67 28.06 23.34 42 23 C42.33 21.02 42.66 19.04 43 17 C34.42 17 25.84 17 17 17 C17 16.67 17 16.34 17 16 C25.91 16 34.82 16 44 16 C44 19.3 44 22.6 44 26 C29.15 26 14.3 26 -1 26 C-1 8.58928571 -1 8.58928571 0 0 Z " fill="#DF4122" transform="translate(239,57)"/>
<path d="M0 0 C0.33 0 0.66 0 1 0 C1.28459514 4.06085053 1.52158928 8.12313276 1.75 12.1875 C1.83121094 13.33798828 1.91242188 14.48847656 1.99609375 15.67382812 C2.08310547 17.34155273 2.08310547 17.34155273 2.171875 19.04296875 C2.2347168 20.06414795 2.29755859 21.08532715 2.36230469 22.13745117 C1.90048202 25.78628591 0.44061955 27.31756658 -2 30 C-2.70885894 31.31138904 -3.39456452 32.63777017 -4 34 C-4.66 34 -5.32 34 -6 34 C-6.21755666 28.5610835 -6.10428384 24.12919186 -4 19 C-4.33 18.67 -4.66 18.34 -5 18 C-5.07271741 15.64686445 -5.08370868 13.29166332 -5.0625 10.9375 C-5.05347656 9.64714844 -5.04445313 8.35679688 -5.03515625 7.02734375 C-5.02355469 6.02832031 -5.01195313 5.02929688 -5 4 C-4.34 4.33 -3.68 4.66 -3 5 C-2.525625 4.175 -2.05125 3.35 -1.5625 2.5 C-1.046875 1.675 -0.53125 0.85 0 0 Z " fill="#FCB902" transform="translate(76,52)"/>
<path d="M0 0 C3.23545839 1.07848613 3.7850639 1.68079723 5.8125 4.25 C8.60139694 7.64001257 11.55230533 10.29109704 15 13 C14.01 13.33 13.02 13.66 12 14 C12.33 18.29 12.66 22.58 13 27 C12.34 27 11.68 27 11 27 C9.40295762 24.63125244 7.9350121 22.27677797 6.5 19.8125 C5.89478516 18.80219727 5.89478516 18.80219727 5.27734375 17.77148438 C1.66805082 11.66665722 -0.28482546 7.26304913 0 0 Z " fill="#F70503" transform="translate(77,2)"/>
<path d="M0 0 C1.37562854 1.28965176 2.70766393 2.62689293 4 4 C4 4.66 4 5.32 4 6 C5.32 5.67 6.64 5.34 8 5 C8.08746928 9.04152915 8.14054982 13.08281305 8.1875 17.125 C8.21263672 18.26710938 8.23777344 19.40921875 8.26367188 20.5859375 C8.35863331 31.47484836 8.35863331 31.47484836 5 36 C3.515 36.495 3.515 36.495 2 37 C2.2475 36.071875 2.2475 36.071875 2.5 35.125 C3.31576222 30.0264861 4.03310548 24.40284084 1.95703125 19.57421875 C0.7651428 16.36828205 1.0642952 14.1850227 1.5 10.8125 C1.94348803 7.73906562 1.94348803 7.73906562 2 5 C1.34 4.34 0.68 3.68 0 3 C0 2.01 0 1.02 0 0 Z " fill="#FEA002" transform="translate(48,60)"/>
<path d="M0 0 C3.41046172 3.41046172 3.95403689 4.63563695 4.11352539 9.36987305 C4.1133675 10.75049841 4.10774417 12.13113024 4.09765625 13.51171875 C4.0962413 14.23994339 4.09482635 14.96816803 4.09336853 15.71846008 C4.08777659 18.04151539 4.07522562 20.36447388 4.0625 22.6875 C4.05748396 24.26367048 4.05292123 25.83984248 4.04882812 27.41601562 C4.0378098 31.27738098 4.02055074 35.13867408 4 39 C2.68 39 1.36 39 0 39 C0 26.13 0 13.26 0 0 Z " fill="#FD3301" transform="translate(80,33)"/>
<path d="M0 0 C0.66 0 1.32 0 2 0 C1.855625 0.928125 1.71125 1.85625 1.5625 2.8125 C0.83635037 7.85405316 0.4312193 12.92629204 0 18 C-0.66 18 -1.32 18 -2 18 C-2 23.94 -2 29.88 -2 36 C-2.99 36 -3.98 36 -5 36 C-5.22820479 32.33429144 -5.42892166 28.66755618 -5.625 25 C-5.68945312 23.97003906 -5.75390625 22.94007812 -5.8203125 21.87890625 C-6.19446305 14.53620175 -6.20955418 8.31433127 -2 2 C-1.34 1.34 -0.68 0.68 0 0 Z " fill="#E10201" transform="translate(31,26)"/>
<path d="M0 0 C3 2 3 2 3.6875 4.9375 C4.17747134 9.87891307 4.6858905 15.07628606 4 20 C3.01 20.66 2.02 21.32 1 22 C1.020625 23.11375 1.04125 24.2275 1.0625 25.375 C1 29 1 29 -1.00390625 31.2265625 C-1.99197266 32.10441406 -1.99197266 32.10441406 -3 33 C-3 27.33333333 -3 21.66666667 -3 16 C-3.37125 14.63875 -3.37125 14.63875 -3.75 13.25 C-4.08048949 8.95363657 -2.45709936 7.42504759 0 4 C0 2.68 0 1.36 0 0 Z " fill="#F9F003" transform="translate(68,52)"/>
<path d="M0 0 C0.33 0 0.66 0 1 0 C1 7.59 1 15.18 1 23 C5.95 22.67 10.9 22.34 16 22 C16.33 19.03 16.66 16.06 17 13 C17.33 13 17.66 13 18 13 C18 16.96 18 20.92 18 25 C11.07 25 4.14 25 -3 25 C-3 17.08 -3 9.16 -3 1 C-2.67 2.32 -2.34 3.64 -2 5 C-1.34 5 -0.68 5 0 5 C0 3.35 0 1.7 0 0 Z " fill="#E3693A" transform="translate(439,59)"/>
<path d="M0 0 C14.85 0 29.7 0 45 0 C45 3.63 45 7.26 45 11 C44.67 11 44.34 11 44 11 C44 7.7 44 4.4 44 1 C30.47 1.33 16.94 1.66 3 2 C2.01 20.81 1.02 39.62 0 59 C-0.33 59 -0.66 59 -1 59 C-1.08332435 46.15879154 -0.81924182 33.33667397 -0.5 20.5 C-0.335 13.735 -0.17 6.97 0 0 Z " fill="#FBBE6A" transform="translate(562,18)"/>
<path d="M0 0 C14.85 0 29.7 0 45 0 C45 7.26 45 14.52 45 22 C44.34 22 43.68 22 43 22 C43 15.07 43 8.14 43 1 C29.8 1.33 16.6 1.66 3 2 C2.71213064 8.59566278 2.71213064 8.59566278 2.43188477 15.19165039 C2.20377788 20.19119394 1.81513582 25.06123592 1 30 C0.67 30 0.34 30 0 30 C0 20.1 0 10.2 0 0 Z " fill="#FBBD68" transform="translate(507,18)"/>
<path d="M0 0 C9.24 0 18.48 0 28 0 C28 4.62 28 9.24 28 14 C18.76 14 9.52 14 0 14 C0 9.38 0 4.76 0 0 Z M2 2 C2 5.63 2 9.26 2 13 C9.92 13 17.84 13 26 13 C26 9.37 26 5.74 26 2 C18.08 2 10.16 2 2 2 Z " fill="#DCDAA7" transform="translate(291,43)"/>
<path d="M0 0 C6.6 0 13.2 0 20 0 C20 15.84 20 31.68 20 48 C19.67 48 19.34 48 19 48 C19 32.82 19 17.64 19 2 C13.39 2 7.78 2 2 2 C2.020625 4.124375 2.04125 6.24875 2.0625 8.4375 C2.08373783 10.62499611 2.07258946 12.81360547 2 15 C1 16 1 16 -2.5625 16.0625 C-3.696875 16.041875 -4.83125 16.02125 -6 16 C-6 15.34 -6 14.68 -6 14 C-4.02 14 -2.04 14 0 14 C0 9.38 0 4.76 0 0 Z " fill="#FBF9DB" transform="translate(209,16)"/>
<path d="M0 0 C14.85 0 29.7 0 45 0 C45 3.3 45 6.6 45 10 C40.71 10 36.42 10 32 10 C32 9.34 32 8.68 32 8 C35.96 8 39.92 8 44 8 C43.505 6.02 43.505 6.02 43 4 C43.33 3.01 43.66 2.02 44 1 C30.47 1.33 16.94 1.66 3 2 C2.67 3.98 2.34 5.96 2 8 C5.96 8 9.92 8 14 8 C14 8.66 14 9.32 14 10 C9.38 10 4.76 10 0 10 C0 6.7 0 3.4 0 0 Z " fill="#FCC46B" transform="translate(424,18)"/>
<path d="M0 0 C0 0.66 0 1.32 0 2 C-0.969375 2.2475 -1.93875 2.495 -2.9375 2.75 C-6.03954701 3.63030569 -6.03954701 3.63030569 -6.875 5.6875 C-7.0431099 8.79753308 -7.05987712 11.88638952 -7 15 C-6.67 13.35 -6.34 11.7 -6 10 C-5.01 10.33 -4.02 10.66 -3 11 C-2.92345464 15.51617599 -2.89771304 19.59085217 -4 24 C-5.875 23.8125 -5.875 23.8125 -8 23 C-9.3125 20.5625 -9.3125 20.5625 -10 18 C-9.67 17.34 -9.34 16.68 -9 16 C-9.66 16 -10.32 16 -11 16 C-10.52060632 11.28596212 -10.03165952 7.33420699 -8 3 C-8.99 2.67 -9.98 2.34 -11 2 C-7.36576791 -0.32590854 -4.22911669 -0.16265833 0 0 Z " fill="#DC2006" transform="translate(45,30)"/>
<path d="M0 0 C0.66 0 1.32 0 2 0 C2.19335938 0.68707031 2.38671875 1.37414063 2.5859375 2.08203125 C2.84632812 2.98308594 3.10671875 3.88414063 3.375 4.8125 C3.75785156 6.15248047 3.75785156 6.15248047 4.1484375 7.51953125 C4.95266661 10.20467896 4.95266661 10.20467896 7 13 C6.7578125 15.48046875 6.7578125 15.48046875 6.125 18.1875 C5.92132813 19.08855469 5.71765625 19.98960938 5.5078125 20.91796875 C5.34023438 21.60503906 5.17265625 22.29210937 5 23 C2.69 21.35 0.38 19.7 -2 18 C-1.34 17.67 -0.68 17.34 0 17 C-0.08378906 15.94039062 -0.16757812 14.88078125 -0.25390625 13.7890625 C-0.35706832 12.40106375 -0.45991663 11.01304165 -0.5625 9.625 C-0.61857422 8.92632812 -0.67464844 8.22765625 -0.73242188 7.5078125 C-1.11328125 2.2265625 -1.11328125 2.2265625 0 0 Z " fill="#FB6202" transform="translate(44,53)"/>
<path d="M0 0 C0.99 0.33 1.98 0.66 3 1 C4.12513633 9.01659634 4.09579384 16.92138585 4 25 C0.09161134 25 -1.11594107 23.49432124 -4 21 C-3.34 20.34 -2.68 19.68 -2 19 C-0.64833363 15.24039818 -0.66551112 11.2046846 -0.4375 7.25 C-0.39431641 6.55261719 -0.35113281 5.85523438 -0.30664062 5.13671875 C-0.20110404 3.42468078 -0.1001009 1.71236439 0 0 Z " fill="#FD1E01" transform="translate(34,50)"/>
<path d="M0 0 C2 2 2 2 2 15 C11.24 15 20.48 15 30 15 C29.67 20.61 29.34 26.22 29 32 C28.67 32 28.34 32 28 32 C28 27.05 28 22.1 28 17 C18.76 17 9.52 17 0 17 C0 11.39 0 5.78 0 0 Z " fill="#E0E1C2" transform="translate(386,28)"/>
<path d="M0 0 C1.25109593 4.12182767 0.98814266 7.98101718 0.83984375 12.24609375 C1.01334544 15.22947641 1.83807938 17.26926049 3 20 C3.125 23.3125 3.125 23.3125 3 26 C3.66 26 4.32 26 5 26 C5 27.32 5 28.64 5 30 C4.01 30.33 3.02 30.66 2 31 C-2.62430868 22.61018282 -4.88622898 14.95546937 -2.3125 5.46484375 C-1.63127738 3.60785709 -0.82889493 1.79593901 0 0 Z " fill="#580307" transform="translate(11,20)"/>
<path d="M0 0 C0.66 0 1.32 0 2 0 C2.59141992 7.45189101 1.31421697 11.88921109 -3 18 C-5.3125 20.5625 -5.3125 20.5625 -7 22 C-6.91621094 21.37351562 -6.83242188 20.74703125 -6.74609375 20.1015625 C-6.64425781 19.28429687 -6.54242187 18.46703125 -6.4375 17.625 C-6.33308594 16.81289063 -6.22867187 16.00078125 -6.12109375 15.1640625 C-5.81762672 12.95100814 -5.81762672 12.95100814 -7 11 C-7.66 10.67 -8.32 10.34 -9 10 C-8.51789062 9.61328125 -8.03578125 9.2265625 -7.5390625 8.828125 C-6.90742188 8.30734375 -6.27578125 7.7865625 -5.625 7.25 C-4.68527344 6.48429688 -4.68527344 6.48429688 -3.7265625 5.703125 C-1.91687682 3.91800519 -0.99882545 2.32050356 0 0 Z " fill="#F90703" transform="translate(35,2)"/>
<path d="M0 0 C7.59 0 15.18 0 23 0 C23 3.3 23 6.6 23 10 C14.09 10 5.18 10 -4 10 C-4.33 9.34 -4.66 8.68 -5 8 C3.58 8 12.16 8 21 8 C21 5.69 21 3.38 21 1 C14.07 1 7.14 1 0 1 C0 0.67 0 0.34 0 0 Z " fill="#FCC26C" transform="translate(391,18)"/>
<path d="M0 0 C2.31 0 4.62 0 7 0 C7 4.29 7 8.58 7 13 C4.69 13 2.38 13 0 13 C0 8.71 0 4.42 0 0 Z " fill="#060604" transform="translate(526,30)"/>
<path d="M0 0 C6.625 -0.25 6.625 -0.25 10 2 C10.39872742 3.83499146 10.39872742 3.83499146 10.43237305 6.08251953 C10.46206429 7.34360031 10.46206429 7.34360031 10.49235535 8.63015747 C10.49874527 9.53853363 10.50513519 10.44690979 10.51171875 11.3828125 C10.52966995 12.31221649 10.54762115 13.24162048 10.56611633 14.19918823 C10.62039848 17.17441233 10.6541722 20.14947443 10.6875 23.125 C10.72065729 25.13934556 10.75514544 27.15366968 10.79101562 29.16796875 C10.87613515 34.11186256 10.94286061 39.05570682 11 44 C10.34 43.67 9.68 43.34 9 43 C8.98541748 42.0620459 8.97083496 41.1240918 8.95581055 40.15771484 C8.89453283 36.65730621 8.82034068 33.15765551 8.73754883 29.65771484 C8.70442074 28.14675096 8.67635145 26.63566693 8.65356445 25.12451172 C8.61979319 22.94446918 8.56747104 20.76551561 8.51171875 18.5859375 C8.48553467 17.2767334 8.45935059 15.9675293 8.43237305 14.61865234 C7.97028494 10.75130624 7.04612702 8.29591032 5 5 C2.41556677 3.26509754 2.41556677 3.26509754 0 2 C0 1.34 0 0.68 0 0 Z " fill="#FD5800" transform="translate(70,30)"/>
<path d="M0 0 C2.72684869 2.57535709 4.99051217 4.9856245 7.0625 8.125 C8.73730587 11.03215389 8.73730587 11.03215389 11.07421875 12.29296875 C13 14 13 14 13.609375 16.91796875 C13.65578125 17.99691406 13.7021875 19.07585938 13.75 20.1875 C13.80671875 21.27417969 13.8634375 22.36085938 13.921875 23.48046875 C13.96054688 24.72763672 13.96054688 24.72763672 14 26 C13.34 26.33 12.68 26.66 12 27 C11.34 23.04 10.68 19.08 10 15 C9.01 15 8.02 15 7 15 C3.21744943 11.35514399 0.20907115 7.70243651 -0.4375 2.4375 C-0.293125 1.633125 -0.14875 0.82875 0 0 Z " fill="#C30906" transform="translate(89,3)"/>
<path d="M0 0 C3.72243942 4.23004479 4.79084056 8.78290991 5.3125 14.3125 C4.90444309 19.1275715 3.5420112 23.43821688 2 28 C1.01 28 0.02 28 -1 28 C-1.25052192 20.48434238 -1.25052192 20.48434238 -0.00390625 18.07421875 C1.26995046 15.44224244 1.23192069 13.47407409 1.1875 10.5625 C1.18105469 9.63566406 1.17460938 8.70882813 1.16796875 7.75390625 C1.00505262 5.08283944 0.5913295 2.60658042 0 0 Z " fill="#3D1212" transform="translate(102,19)"/>
<path d="M0 0 C0.99 0.495 0.99 0.495 2 1 C3.3763386 0.94289051 4.75150647 0.85528522 6.125 0.75 C11.51515851 0.6451671 14.81365845 2.80606094 19 6 C15.86650268 7.04449911 15.01031744 6.93423645 12 6 C12 6.66 12 7.32 12 8 C10.375 8.75 10.375 8.75 8 9 C4.4388021 7.14817709 2.43658417 5.87316833 0.625 2.25 C0.41875 1.5075 0.2125 0.765 0 0 Z " fill="#A70203" transform="translate(13,59)"/>
<path d="M0 0 C2.37124458 3.55686688 2.10698812 4.21557807 1.3125 8.25 C0.37964058 12.84113165 -0.94659171 16.79984668 -3 21 C-4.14857926 17.55426223 -4.03468706 14.84375345 -3.9375 11.25390625 C-4.00045807 8.9834807 -4.24663056 7.14239433 -5 5 C-5.66 4.67 -6.32 4.34 -7 4 C-4.82575883 1.49962266 -3.26954202 0.56371414 0 0 Z " fill="#D60505" transform="translate(28,12)"/>
<path d="M0 0 C0.66 0 1.32 0 2 0 C2 4.95 2 9.9 2 15 C-4.6 15 -11.2 15 -18 15 C-18 13.35 -18 11.7 -18 10 C-17.01 10.33 -16.02 10.66 -15 11 C-15 11.66 -15 12.32 -15 13 C-10.38 12.67 -5.76 12.34 -1 12 C-0.67 8.04 -0.34 4.08 0 0 Z " fill="#EE6C3B" transform="translate(524,69)"/>
<path d="M0 0 C0.66 0.33 1.32 0.66 2 1 C2 8.59 2 16.18 2 24 C-3.61 24 -9.22 24 -15 24 C-15 21.69 -15 19.38 -15 17 C-14.34 17.33 -13.68 17.66 -13 18 C-13 18.99 -13 19.98 -13 21 C-8.71 21 -4.42 21 0 21 C0 14.07 0 7.14 0 0 Z " fill="#E04828" transform="translate(226,59)"/>
<path d="M0 0 C0.66 0 1.32 0 2 0 C2 3.3 2 6.6 2 10 C6.29 10 10.58 10 15 10 C15 18.25 15 26.5 15 35 C14.67 35 14.34 35 14 35 C14 27.41 14 19.82 14 12 C9.38 12 4.76 12 0 12 C0 8.04 0 4.08 0 0 Z " fill="#ECEBB6" transform="translate(326,25)"/>
<path d="M0 0 C0.33 0.99 0.66 1.98 1 3 C0.34 3.66 -0.32 4.32 -1 5 C-1.2475 5.845625 -1.495 6.69125 -1.75 7.5625 C-2.1625 8.366875 -2.575 9.17125 -3 10 C-6.125 10.8125 -6.125 10.8125 -9 11 C-8.34 9.35 -7.68 7.7 -7 6 C-8.65 6 -10.3 6 -12 6 C-12 5.34 -12 4.68 -12 4 C-4 0 -4 0 0 0 Z " fill="#F5A603" transform="translate(59,50)"/>
<path d="M0 0 C0.66 0 1.32 0 2 0 C2 3.3 2 6.6 2 10 C-6.91 10 -15.82 10 -25 10 C-25 9.34 -25 8.68 -25 8 C-16.75 8 -8.5 8 0 8 C0 5.36 0 2.72 0 0 Z " fill="#FBC16F" transform="translate(281,18)"/>
<path d="M0 0 C0.66 0.33 1.32 0.66 2 1 C2 3.31 2 5.62 2 8 C2.66 8.33 3.32 8.66 4 9 C2.35 11.31 0.7 13.62 -1 16 C-1.66 15.67 -2.32 15.34 -3 15 C-4.16097818 10.19023325 -4.57481041 7.34993676 -2.0625 3 C-1.381875 2.01 -0.70125 1.02 0 0 Z " fill="#880B0B" transform="translate(99,39)"/>
<path d="M0 0 C3.63 0 7.26 0 11 0 C11.25 8.5 11.25 8.5 9 13 C9 9.37 9 5.74 9 2 C6.69 2 4.38 2 2 2 C2 5.96 2 9.92 2 14 C1.34 14 0.68 14 0 14 C0 9.38 0 4.76 0 0 Z " fill="#F7C66F" transform="translate(524,55)"/>
<path d="M0 0 C0.33 0 0.66 0 1 0 C1 3.96 1 7.92 1 12 C-1.31 12 -3.62 12 -6 12 C-6 13.98 -6 15.96 -6 18 C-4.02 18 -2.04 18 0 18 C0 21.3 0 24.6 0 28 C-0.33 28 -0.66 28 -1 28 C-1 25.36 -1 22.72 -1 20 C-3.31 20 -5.62 20 -8 20 C-8 16.37 -8 12.74 -8 9 C-5.69 9 -3.38 9 -1 9 C-0.67 9.66 -0.34 10.32 0 11 C0 7.37 0 3.74 0 0 Z " fill="#CCC993" transform="translate(553,32)"/>
<path d="M0 0 C0.99 0 1.98 0 3 0 C3 6.93 3 13.86 3 21 C1.68 20.34 0.36 19.68 -1 19 C-0.67 12.73 -0.34 6.46 0 0 Z " fill="#FA0100" transform="translate(29,44)"/>
<path d="M0 0 C0.66 0 1.32 0 2 0 C1.11786215 6.70728953 -0.72328139 11.54059922 -6 16 C-6.66 16 -7.32 16 -8 16 C-6.88324435 10.50928473 -5.85790899 7.21958796 -2 3 C-1.34 2.01 -0.68 1.02 0 0 Z " fill="#CB350A" transform="translate(24,3)"/>
<path d="M0 0 C0.66 0 1.32 0 2 0 C2 4.29 2 8.58 2 13 C6.95 13.33 11.9 13.66 17 14 C17 14.66 17 15.32 17 16 C11.39 16 5.78 16 0 16 C0 10.72 0 5.44 0 0 Z " fill="#DF4224" transform="translate(163,67)"/>
<path d="M0 0 C0.33 0.99 0.66 1.98 1 3 C-1.5 7.33333333 -1.5 7.33333333 -4 9 C-7.13335796 9.21970123 -9.95652984 8.72937193 -13 8 C-10.83979414 4.75969121 -9.96232939 4.30264881 -6.5 2.875 C-5.7059375 2.54242188 -4.911875 2.20984375 -4.09375 1.8671875 C-3.4028125 1.58101562 -2.711875 1.29484375 -2 1 C-1.34 0.67 -0.68 0.34 0 0 Z " fill="#AE0303" transform="translate(102,56)"/>
<path d="M0 0 C0.33 0 0.66 0 1 0 C1 4.29 1 8.58 1 13 C5.29 13 9.58 13 14 13 C14 8.71 14 4.42 14 0 C16 2 16 2 16.1953125 5.0390625 C16.13020833 8.359375 16.06510417 11.6796875 16 15 C10.72 14.67 5.44 14.34 0 14 C0 9.38 0 4.76 0 0 Z " fill="#B2B590" transform="translate(188,30)"/>
<path d="M0 0 C0.33 0 0.66 0 1 0 C1.33 8.25 1.66 16.5 2 25 C1.01 25 0.02 25 -1 25 C-1.22573595 21.39670111 -1.42759125 17.79245301 -1.625 14.1875 C-1.68945312 13.16333984 -1.75390625 12.13917969 -1.8203125 11.08398438 C-1.871875 10.10107422 -1.9234375 9.11816406 -1.9765625 8.10546875 C-2.05511475 6.74651489 -2.05511475 6.74651489 -2.13525391 5.36010742 C-2 3 -2 3 0 0 Z " fill="#FC9003" transform="translate(76,52)"/>
<path d="M0 0 C6.49116162 2.3270202 6.49116162 2.3270202 8.9375 5.5625 C10 8 10 8 10 10 C10.66 10 11.32 10 12 10 C11.67 10.99 11.34 11.98 11 13 C6.72390553 10.43434332 4.36540819 8.37600515 2 4 C1.34 3.67 0.68 3.34 0 3 C0 2.01 0 1.02 0 0 Z " fill="#DE4E07" transform="translate(1,42)"/>
<path d="M0 0 C3.42935602 3.20810724 4.93590448 5.08482588 5.09765625 9.91796875 C5.08605469 10.99691406 5.07445312 12.07585937 5.0625 13.1875 C5.05347656 14.27417969 5.04445313 15.36085938 5.03515625 16.48046875 C5.02355469 17.31191406 5.01195312 18.14335938 5 19 C4.01 19 3.02 19 2 19 C0.76923979 14.76071482 1.24475711 11.26154146 1.94140625 6.98828125 C1.96074219 6.33214844 1.98007812 5.67601563 2 5 C1.34 4.34 0.68 3.68 0 3 C0 2.01 0 1.02 0 0 Z " fill="#FD8D02" transform="translate(48,60)"/>
<path d="M0 0 C3 1 3 1 5 4 C5.1953125 6.69921875 5.1953125 6.69921875 5.125 9.6875 C5.10695313 10.68136719 5.08890625 11.67523438 5.0703125 12.69921875 C5.03550781 13.83810547 5.03550781 13.83810547 5 15 C1.18405036 11.36177952 0.05024306 8.53241345 -0.125 3.1875 C-0.063125 1.6096875 -0.063125 1.6096875 0 0 Z " fill="#FB4C03" transform="translate(77,2)"/>
<path d="M0 0 C-2.04936626 4.84395662 -5.04048394 9.04201437 -9.8125 11.375 C-10.534375 11.58125 -11.25625 11.7875 -12 12 C-6.46153846 0 -6.46153846 0 0 0 Z " fill="#C13208" transform="translate(113,43)"/>
<path d="M0 0 C2.2386565 2.2386565 2.8996395 4.06570533 4 7 C4.33 7.66 4.66 8.32 5 9 C4.66015625 11.3828125 4.66015625 11.3828125 4.0625 14.125 C3.86785156 15.03507812 3.67320313 15.94515625 3.47265625 16.8828125 C3.23869141 17.93082031 3.23869141 17.93082031 3 19 C2.01 18.34 1.02 17.68 0 17 C-0.2208564 14.04935852 -0.28060989 11.31631769 -0.1875 8.375 C-0.17396484 7.57320313 -0.16042969 6.77140625 -0.14648438 5.9453125 C-0.11109051 3.96325622 -0.05728234 1.98154449 0 0 Z " fill="#FC7702" transform="translate(46,57)"/>
<path d="M0 0 C3.3 0 6.6 0 10 0 C10 2.97 10 5.94 10 9 C8 7 8 7 7.875 4.375 C7.91625 3.59125 7.9575 2.8075 8 2 C5.69 2 3.38 2 1 2 C1 6.29 1 10.58 1 15 C0.67 15 0.34 15 0 15 C0 10.05 0 5.1 0 0 Z " fill="#FCD779" transform="translate(201,55)"/>
<path d="M0 0 C0.33 0 0.66 0 1 0 C3.72 8.84 3.72 8.84 2 14 C0.68 13.67 -0.64 13.34 -2 13 C-2 12.34 -2 11.68 -2 11 C-1.34 11 -0.68 11 0 11 C0 9.68 0 8.36 0 7 C-0.66 7 -1.32 7 -2 7 C-2.125 4.625 -2.125 4.625 -2 2 C-1.34 1.34 -0.68 0.68 0 0 Z " fill="#7A0002" transform="translate(16,39)"/>
<path d="M0 0 C0.66 0 1.32 0 2 0 C3.10643764 5.83394389 3.27137992 8.76579213 0 14 C-0.66 14 -1.32 14 -2 14 C-2.3690205 4.58997722 -2.3690205 4.58997722 0 0 Z " fill="#FDC503" transform="translate(72,72)"/>
<path d="M0 0 C0 4.62 0 9.24 0 14 C-0.99 14.495 -0.99 14.495 -2 15 C-3.77234615 9.89147286 -4.29920852 6.41336882 -3 1 C-1 0 -1 0 0 0 Z " fill="#B72E09" transform="translate(76,39)"/>
<path d="M0 0 C0.33 0 0.66 0 1 0 C1.55353075 11.70615034 1.55353075 11.70615034 -2 16 C-2.66 15.67 -3.32 15.34 -4 15 C-3.88637738 13.5199159 -3.75877092 12.04089926 -3.625 10.5625 C-3.55539063 9.73878906 -3.48578125 8.91507813 -3.4140625 8.06640625 C-3.20910156 7.04353516 -3.20910156 7.04353516 -3 6 C-2.34 5.67 -1.68 5.34 -1 5 C-0.34444881 2.47266765 -0.34444881 2.47266765 0 0 Z " fill="#A10305" transform="translate(103,24)"/>
<path d="M0 0 C6.36 -0.36 6.36 -0.36 9 1.125 C10.49672661 3.93136238 9.73294398 6.00159282 9 9 C8.34 9 7.68 9 7 9 C6.54625 8.21625 6.0925 7.4325 5.625 6.625 C3.92348887 3.8764051 2.95480916 3.12078968 0 2 C0 1.34 0 0.68 0 0 Z " fill="#F99B07" transform="translate(70,30)"/>
<path d="M0 0 C0.66 0 1.32 0 2 0 C1.66666667 2.33333333 1.33333333 4.66666667 1 7 C0.855625 8.2375 0.71125 9.475 0.5625 10.75 C0 14 0 14 -2 17 C-3.98389764 13.03220471 -3.23395217 8.82663101 -2.0625 4.6875 C-1 2 -1 2 0 0 Z " fill="#D10705" transform="translate(31,26)"/>
<path d="M0 0 C1.28020933 3.840628 0.48667326 6.77739662 -0.3125 10.625 C-0.44333984 11.31851562 -0.57417969 12.01203125 -0.70898438 12.7265625 C-1.06756384 14.50040489 -1.52682958 16.2532299 -2 18 C-2.66 18.33 -3.32 18.66 -4 19 C-4.28573751 11.99943109 -4.01476736 6.02215104 0 0 Z " fill="#DB0303" transform="translate(15,14)"/>
<path d="M0 0 C0.66 0 1.32 0 2 0 C2.02685938 2.14576637 2.04633088 4.29162645 2.0625 6.4375 C2.07410156 7.63246094 2.08570313 8.82742187 2.09765625 10.05859375 C2 13 2 13 1 14 C-1.33297433 14.04092937 -3.66705225 14.04241723 -6 14 C-6 13.34 -6 12.68 -6 12 C-4.02 12 -2.04 12 0 12 C0 8.04 0 4.08 0 0 Z " fill="#F8F3D3" transform="translate(209,18)"/>
<path d="M0 0 C2.58926331 2.58926331 2.37398043 4.02705279 2.625 7.625 C2.69976562 8.62789062 2.77453125 9.63078125 2.8515625 10.6640625 C2.92503906 11.82035156 2.92503906 11.82035156 3 13 C2.01 13 1.02 13 0 13 C-1.6435979 9.51943975 -2.29703854 7.65529044 -1 4 C-0.814375 3.2575 -0.62875 2.515 -0.4375 1.75 C-0.293125 1.1725 -0.14875 0.595 0 0 Z " fill="#EB4F06" transform="translate(42,73)"/>
<path d="M0 0 C1.485 0.99 1.485 0.99 3 2 C3.29296875 4.3828125 3.29296875 4.3828125 3.1875 7.125 C3.16042969 8.03507812 3.13335937 8.94515625 3.10546875 9.8828125 C3.07066406 10.58148438 3.03585938 11.28015625 3 12 C2.34 12 1.68 12 1 12 C0.67 12.66 0.34 13.32 0 14 C0 9.38 0 4.76 0 0 Z " fill="#FC4D01" transform="translate(41,58)"/>
<path d="M0 0 C-0.33 1.65 -0.66 3.3 -1 5 C-4.07322544 5.91058531 -6.80097361 6.08886184 -10 6 C-10 5.34 -10 4.68 -10 4 C-2 0 -2 0 0 0 Z " fill="#EF9605" transform="translate(57,50)"/>
<path d="M0 0 C0.66 0 1.32 0 2 0 C1.690625 0.804375 1.38125 1.60875 1.0625 2.4375 C-0.18565517 6.62249087 -0.6337696 10.66306101 -1 15 C-1.33 14.34 -1.66 13.68 -2 13 C-2.66 13 -3.32 13 -4 13 C-3.71682074 11.39431334 -3.42312209 9.79047953 -3.125 8.1875 C-2.96257813 7.29417969 -2.80015625 6.40085937 -2.6328125 5.48046875 C-2 3 -2 3 0 0 Z " fill="#EE0705" transform="translate(29,28)"/>
<path d="M0 0 C3.40843742 2.88406243 4.86591384 4.3708265 5.8125 8.8125 C5.9053125 10.3903125 5.9053125 10.3903125 6 12 C1.125 8.25 1.125 8.25 0 6 C-0.039992 4.00039988 -0.04346799 1.99952758 0 0 Z " fill="#C92E08" transform="translate(89,3)"/>
<path d="M0 0 C0.66 0.33 1.32 0.66 2 1 C1.67 1.33 1.34 1.66 1 2 C3.31 2.66 5.62 3.32 8 4 C7.01 4.99 6.02 5.98 5 7 C4.01 6.67 3.02 6.34 2 6 C2 5.34 2 4.68 2 4 C0.02 4 -1.96 4 -4 4 C-2.68 2.68 -1.36 1.36 0 0 Z " fill="#CA0505" transform="translate(89,61)"/>
<path d="M0 0 C0.33 0 0.66 0 1 0 C1 1.98 1 3.96 1 6 C1.66 6 2.32 6 3 6 C3 7.32 3 8.64 3 10 C2.01 10.33 1.02 10.66 0 11 C-1.06775224 9.03533587 -2.06553465 7.03144641 -3 5 C-2 3 -2 3 0 0 Z " fill="#6F0306" transform="translate(13,40)"/>
<path d="M0 0 C0.99 0 1.98 0 3 0 C2.67 7.92 2.34 15.84 2 24 C1.67 24 1.34 24 1 24 C0.67 16.08 0.34 8.16 0 0 Z " fill="#A30B08" transform="translate(95,21)"/>
<path d="M0 0 C2.41821796 3.62732695 2.0586305 4.48350057 1.25 8.625 C1.06953125 9.60726563 0.8890625 10.58953125 0.703125 11.6015625 C0.47109375 12.39304687 0.2390625 13.18453125 0 14 C-0.99 14.495 -0.99 14.495 -2 15 C-1.67 10.71 -1.34 6.42 -1 2 C-1.66 1.67 -2.32 1.34 -3 1 C-2.01 0.67 -1.02 0.34 0 0 Z " fill="#EA0101" transform="translate(28,12)"/>
<path d="M0 0 C2.67927341 4.01891012 2.15601248 6.24161923 2 11 C1.01 11.33 0.02 11.66 -1 12 C-2.11658501 7.31034294 -1.80619523 4.46236469 0 0 Z " fill="#A70306" transform="translate(13,27)"/>
<path d="M0 0 C0.66 0 1.32 0 2 0 C2.4726477 8.19256018 2.4726477 8.19256018 0.5 11.5625 C0.005 12.036875 -0.49 12.51125 -1 13 C-0.67 11.02 -0.34 9.04 0 7 C-0.99 6.34 -1.98 5.68 -3 5 C-1.625 2.5 -1.625 2.5 0 0 Z " fill="#F91F09" transform="translate(35,2)"/>
<path d="M0 0 C1.32 0.33 2.64 0.66 4 1 C4.33 2.32 4.66 3.64 5 5 C4.01 5.33 3.02 5.66 2 6 C-0.6875 4.5625 -0.6875 4.5625 -3 3 C-2.01 2.67 -1.02 2.34 0 2 C0 1.34 0 0.68 0 0 Z " fill="#DD0403" transform="translate(25,65)"/>
<path d="M0 0 C0.99 0.33 1.98 0.66 3 1 C3.25 8.625 3.25 8.625 1 12 C0.67 8.04 0.34 4.08 0 0 Z " fill="#E24B0A" transform="translate(39,40)"/>
<path d="M0 0 C0.66 0.33 1.32 0.66 2 1 C2 4.3 2 7.6 2 11 C1.34 11 0.68 11 0 11 C-0.19491452 9.54263913 -0.38069358 8.08405407 -0.5625 6.625 C-0.66691406 5.81289063 -0.77132812 5.00078125 -0.87890625 4.1640625 C-1 2 -1 2 0 0 Z " fill="#A50102" transform="translate(84,32)"/>
<path d="M0 0 C1.51953125 1.17578125 1.51953125 1.17578125 3 3 C3.07421875 5.48046875 3.07421875 5.48046875 2.6875 8.1875 C2.56761719 9.08855469 2.44773437 9.98960938 2.32421875 10.91796875 C2.21722656 11.60503906 2.11023438 12.29210938 2 13 C0.48046875 11.82421875 0.48046875 11.82421875 -1 10 C-1.07421875 7.51953125 -1.07421875 7.51953125 -0.6875 4.8125 C-0.56761719 3.91144531 -0.44773437 3.01039062 -0.32421875 2.08203125 C-0.21722656 1.39496094 -0.11023438 0.70789063 0 0 Z " fill="#FA2102" transform="translate(82,7)"/>
<path d="M0 0 C0.66 0.33 1.32 0.66 2 1 C0.02 5.455 0.02 5.455 -2 10 C-2.66 10 -3.32 10 -4 10 C-2.25 2.25 -2.25 2.25 0 0 Z " fill="#910C06" transform="translate(20,9)"/>
<path d="M0 0 C0.33 0 0.66 0 1 0 C1.144375 0.78375 1.28875 1.5675 1.4375 2.375 C1.87798925 4.96421018 1.87798925 4.96421018 3 7 C2.67 7.99 2.34 8.98 2 10 C1.01 10 0.02 10 -1 10 C-1.125 2.25 -1.125 2.25 0 0 Z " fill="#580F11" transform="translate(102,37)"/>
<path d="M0 0 C1.32 0 2.64 0 4 0 C4.33 1.32 4.66 2.64 5 4 C5.66 4 6.32 4 7 4 C6.67 4.99 6.34 5.98 6 7 C3 5.1875 3 5.1875 0 3 C0 2.01 0 1.02 0 0 Z " fill="#A0120A" transform="translate(6,48)"/>
<path d="M0 0 C0.66 0.33 1.32 0.66 2 1 C1.52797514 5.24822374 -0.96655518 7.19989709 -4 10 C-3.29445932 6.33118845 -1.72264494 3.29549466 0 0 Z " fill="#7F0201" transform="translate(99,39)"/>
<path d="M0 0 C1.32 0.33 2.64 0.66 4 1 C3.34 2.98 2.68 4.96 2 7 C0.68 6.67 -0.64 6.34 -2 6 C-2 5.34 -2 4.68 -2 4 C-1.34 4 -0.68 4 0 4 C0 2.68 0 1.36 0 0 Z " fill="#8A0101" transform="translate(16,46)"/>
<path d="M0 0 C0.763125 0.20625 1.52625 0.4125 2.3125 0.625 C2.3125 1.285 2.3125 1.945 2.3125 2.625 C0.3325 3.285 -1.6475 3.945 -3.6875 4.625 C-3.6875 3.965 -3.6875 3.305 -3.6875 2.625 C-4.3475 2.295 -5.0075 1.965 -5.6875 1.625 C-2.6875 -0.375 -2.6875 -0.375 0 0 Z " fill="#FAE707" transform="translate(65.6875,44.375)"/>
<path d="M0 0 C1.32 0 2.64 0 4 0 C3.25 4.75 3.25 4.75 1 7 C0 6 0 6 -0.0625 2.9375 C-0.041875 1.968125 -0.02125 0.99875 0 0 Z " fill="#FA1C01" transform="translate(33,33)"/>
<path d="M0 0 C2.31 0 4.62 0 7 0 C7 0.66 7 1.32 7 2 C4.35261084 3.4606285 3.10551666 4 0 4 C0 2.68 0 1.36 0 0 Z " fill="#EE4209" transform="translate(38,30)"/>
<path d="M0 0 C0.66 0.66 1.32 1.32 2 2 C1.875 4.5 1.875 4.5 1 7 C-0.98 7.99 -0.98 7.99 -3 9 C-2.01 6.03 -1.02 3.06 0 0 Z " fill="#EEBF06" transform="translate(58,85)"/>
<path d="M0 0 C0.33 0 0.66 0 1 0 C2.125 7.75 2.125 7.75 1 10 C0.34 10 -0.32 10 -1 10 C-1.02689216 8.52093108 -1.04634621 7.04172517 -1.0625 5.5625 C-1.07410156 4.73878906 -1.08570312 3.91507812 -1.09765625 3.06640625 C-1 1 -1 1 0 0 Z " fill="#F8DF07" transform="translate(71,76)"/>
<path d="M0 0 C0.33 0.99 0.66 1.98 1 3 C-0.4375 5.1875 -0.4375 5.1875 -2 7 C-2.99 6.67 -3.98 6.34 -5 6 C-4.75 4.125 -4.75 4.125 -4 2 C-1.9375 0.75 -1.9375 0.75 0 0 Z " fill="#890908" transform="translate(102,56)"/>
<path d="M0 0 C0.66 0 1.32 0 2 0 C2 3.96 2 7.92 2 12 C1.67 12 1.34 12 1 12 C0.63762737 10.37681021 0.28534843 8.7513642 -0.0625 7.125 C-0.25972656 6.22007813 -0.45695312 5.31515625 -0.66015625 4.3828125 C-1 2 -1 2 0 0 Z " fill="#B40001" transform="translate(21,18)"/>
<path d="M0 0 C1.41687119 4.25061356 0.19320039 6.71851625 -1 11 C-3 8 -3 8 -2.75 5.5 C-2 3 -2 3 0 0 Z " fill="#C80C09" transform="translate(15,14)"/>
<path d="M0 0 C2.97 0.99 5.94 1.98 9 3 C9 3.33 9 3.66 9 4 C3.375 4.25 3.375 4.25 0 2 C0 1.34 0 0.68 0 0 Z " fill="#E70807" transform="translate(12,57)"/>
<path d="M0 0 C0.33 0 0.66 0 1 0 C0.25 6.625 0.25 6.625 -2 10 C-2 7.36 -2 4.72 -2 2 C-1.34 2 -0.68 2 0 2 C0 1.34 0 0.68 0 0 Z " fill="#930201" transform="translate(31,33)"/>
<path d="M0 0 C0.99 0.33 1.98 0.66 3 1 C2.67 3.31 2.34 5.62 2 8 C1.34 7.67 0.68 7.34 0 7 C0 4.69 0 2.38 0 0 Z " fill="#E26A09" transform="translate(77,2)"/>
<path d="M0 0 C0.33 0.66 0.66 1.32 1 2 C1.66 2.33 2.32 2.66 3 3 C2.1875 4.9375 2.1875 4.9375 1 7 C0.01 7.33 -0.98 7.66 -2 8 C-1.34 5.36 -0.68 2.72 0 0 Z " fill="#ED9D07" transform="translate(52,89)"/>
<path d="M0 0 C0.66 0.99 1.32 1.98 2 3 C1.125 6.6875 1.125 6.6875 0 10 C-1.125 8.375 -1.125 8.375 -2 6 C-1.125 2.75 -1.125 2.75 0 0 Z " fill="#FD1201" transform="translate(34,7)"/>
</svg>
